<?xml version="1.0" encoding="UTF-8" standalone="no"?>
<svg
   xmlns:dc="http://purl.org/dc/elements/1.1/"
   xmlns:cc="http://creativecommons.org/ns#"
   xmlns:rdf="http://www.w3.org/1999/02/22-rdf-syntax-ns#"
   xmlns:svg="http://www.w3.org/2000/svg"
   xmlns="http://www.w3.org/2000/svg"
   xmlns:sodipodi="http://sodipodi.sourceforge.net/DTD/sodipodi-0.dtd"
   xmlns:inkscape="http://www.inkscape.org/namespaces/inkscape"
   version="1.1"
   x="0px"
   y="0px"
   viewBox="0 0 50 50"
   enable-background="new 0 0 50 50"
   xml:space="preserve"
   id="svg839"
   sodipodi:docname="bird-logo.svg"
   inkscape:version="1.0 (4035a4f, 2020-05-01)"
   width="50"
   height="50"
   inkscape:export-filename="/Users/jacobdavidgrisham/Downloads/bird-logo.png"
   inkscape:export-xdpi="599.03998"
   inkscape:export-ydpi="599.03998"><metadata
     id="metadata845"><rdf:RDF><cc:Work
         rdf:about=""><dc:format>image/svg+xml</dc:format><dc:type
           rdf:resource="http://purl.org/dc/dcmitype/StillImage" /><dc:title /></cc:Work></rdf:RDF></metadata><defs
     id="defs843" /><sodipodi:namedview
     inkscape:document-rotation="0"
     pagecolor="#ffffff"
     bordercolor="#666666"
     borderopacity="1"
     objecttolerance="10"
     gridtolerance="10"
     guidetolerance="10"
     inkscape:pageopacity="0"
     inkscape:pageshadow="2"
     inkscape:window-width="1339"
     inkscape:window-height="757"
     id="namedview841"
     showgrid="false"
     inkscape:zoom="9.4910671"
     inkscape:cx="29.972243"
     inkscape:cy="27.862047"
     inkscape:window-x="38"
     inkscape:window-y="0"
     inkscape:window-maximized="0"
     inkscape:current-layer="svg839" /><g
     id="g844"><ellipse
       ry="2.3384354"
       rx="2.6573129"
       cy="17.219387"
       cx="36.352039"
       id="path844"
       style="fill:#1c95e2;stroke-width:0.5;fill-opacity:1" /><path
       style="fill:#1c95e2;fill-opacity:1"
       id="path833"
       d="m 45,14.597 c -1.455,0.121 -2.906,0.219 -4.366,0.292 -2.075,-2.637 -5.746,-3.343 -7.724,-3.343 -3.654,0 -7.762,1.969 -10.63,7.496 -4.172,-1.079 -8.444,-2.706 -11.279,-5.791 -0.185,1.182 -0.279,2.377 -0.279,3.581 0,5.316 1.58,9.558 5.613,12.845 C 13.054,32.154 9.0719998,33.096 4.9999998,33.439 10.144,36.774 16.415,38.454 22.632,38.454 c 15.826,0 19.535,-13.96 19.535,-18.781 0,-0.398 -0.023,-0.778 -0.066,-1.141 0.869,-1.377 1.82,-2.699 2.899,-3.935 z m -8.661,4.313 c -0.89,0 -1.61,-0.722 -1.61,-1.61 0,-0.89 0.721,-1.61 1.61,-1.61 0.889,0 1.61,0.721 1.61,1.61 0,0.888 -0.72,1.61 -1.61,1.61 z" /></g></svg>
