<svg xmlns="http://www.w3.org/2000/svg" xmlns:xlink="http://www.w3.org/1999/xlink" version="1.1" fill="#242944" x="0px" y="0px" viewBox="0 0 50 62.5" enable-background="new 0 0 50 50" xml:space="preserve"><path d="M45,14.597c-1.455,0.121-2.906,0.219-4.366,0.292c-2.075-2.637-5.746-3.343-7.724-3.343c-3.654,0-7.762,1.969-10.63,7.496  c-4.172-1.079-8.444-2.706-11.279-5.791c-0.185,1.182-0.279,2.377-0.279,3.581c0,5.316,1.58,9.558,5.613,12.845  C13.054,32.154,9.072,33.096,5,33.439c5.144,3.335,11.415,5.015,17.632,5.015c15.826,0,19.535-13.96,19.535-18.781  c0-0.398-0.023-0.778-0.066-1.141C42.97,17.155,43.921,15.833,45,14.597z M36.339,18.91c-0.89,0-1.61-0.722-1.61-1.61  c0-0.89,0.721-1.61,1.61-1.61s1.61,0.721,1.61,1.61C37.949,18.188,37.229,18.91,36.339,18.91z"/></svg>